<svg width="250" height="300" viewBox="0 0 250 300" fill="none" xmlns="http://www.w3.org/2000/svg">
<path d="M70.0075 300H60.0086C51.7251 300 45.0102 293.704 45.0102 285.938L45.0102 75H15.0134C1.66041 75 -5.01076 59.8248 4.40762 50.9935L54.4023 4.11855C60.2598 -1.37286 69.7563 -1.37286 75.6132 4.11855L125.608 50.9935C134.989 59.7914 128.411 75 115.003 75H85.0059L85.0059 285.938C85.0059 293.704 78.291 300 70.0075 300ZM164.997 14.0625L164.997 225H135.001C121.681 225 114.953 240.154 124.395 249.006L174.39 295.881C180.247 301.373 189.744 301.373 195.6 295.881L245.595 249.006C254.986 240.201 248.387 225 234.99 225H204.993L204.993 14.0625C204.993 6.2959 198.278 0 189.995 0H179.996C171.712 0 164.997 6.2959 164.997 14.0625Z" fill="white"/>
</svg>
