<svg width="300" height="300" viewBox="0 0 300 300" fill="none" xmlns="http://www.w3.org/2000/svg">
<path d="M172.447 279.906L157.583 295.157C151.289 301.614 141.111 301.614 134.884 295.157L4.72046 161.679C-1.57349 155.221 -1.57349 144.779 4.72046 138.39L134.884 4.84314C141.178 -1.61438 151.356 -1.61438 157.583 4.84314L172.447 20.0939C178.808 26.6201 178.674 37.2681 172.179 43.657L91.4965 122.521H283.93C292.836 122.521 300 129.872 300 139.008V160.992C300 170.128 292.836 177.479 283.93 177.479H91.4965L172.179 256.343C178.741 262.732 178.875 273.38 172.447 279.906Z" fill="#144E84"/>
</svg>
