<svg width="300" height="300" viewBox="0 0 300 300" fill="none" xmlns="http://www.w3.org/2000/svg">
<path d="M203.569 91.9355C194.797 37.9234 174.108 0 150.03 0C125.953 0 105.263 37.9234 96.4912 91.9355H203.569ZM91.954 150C91.954 163.427 92.68 176.31 93.9504 188.71H206.05C207.32 176.31 208.046 163.427 208.046 150C208.046 136.573 207.32 123.69 206.05 111.29H93.9504C92.68 123.69 91.954 136.573 91.954 150ZM288.385 91.9355C271.083 50.8669 236.056 19.1129 192.801 6.29032C207.562 26.7339 217.725 57.5202 223.049 91.9355H288.385ZM107.199 6.29032C64.0048 19.1129 28.9171 50.8669 11.6757 91.9355H77.0115C82.2747 57.5202 92.438 26.7339 107.199 6.29032ZM294.858 111.29H225.469C226.739 123.992 227.465 136.996 227.465 150C227.465 163.004 226.739 176.008 225.469 188.71H294.797C298.125 176.31 300 163.427 300 150C300 136.573 298.125 123.69 294.858 111.29ZM72.5953 150C72.5953 136.996 73.3212 123.992 74.5917 111.29H5.20266C1.93587 123.69 0 136.573 0 150C0 163.427 1.93587 176.31 5.20266 188.71H74.5312C73.3212 176.008 72.5953 163.004 72.5953 150ZM96.4912 208.065C105.263 262.077 125.953 300 150.03 300C174.108 300 194.797 262.077 203.569 208.065H96.4912ZM192.861 293.71C236.056 280.887 271.143 249.133 288.445 208.065H223.109C217.786 242.48 207.622 273.266 192.861 293.71ZM11.6757 208.065C28.9776 249.133 64.0048 280.887 107.26 293.71C92.4985 273.266 82.3352 242.48 77.0115 208.065H11.6757Z" fill="white"/>
</svg>
