<svg width="300" height="230" viewBox="0 0 300 230" fill="none" xmlns="http://www.w3.org/2000/svg">
<path d="M295.848 125.174L195.843 225.783C186.914 234.765 171.437 228.477 171.437 215.602V158.111H90.4807C82.5636 158.111 76.1943 151.704 76.1943 143.739V86.2484C76.1943 78.2836 82.5636 71.8758 90.4807 71.8758H171.437V14.3854C171.437 1.56977 186.854 -4.77813 195.843 4.20475L295.848 104.813C301.384 110.442 301.384 119.545 295.848 125.174ZM114.291 222.788V198.834C114.291 194.881 111.077 191.648 107.148 191.648H57.1457C46.6095 191.648 38.0971 183.084 38.0971 172.484V57.5032C38.0971 46.9034 46.6095 38.3397 57.1457 38.3397H107.148C111.077 38.3397 114.291 35.1059 114.291 31.1534V7.19904C114.291 3.24658 111.077 0.0127369 107.148 0.0127369H57.1457C25.5965 0.0127369 0 25.7637 0 57.5032V172.484C0 204.224 25.5965 229.975 57.1457 229.975H107.148C111.077 229.975 114.291 226.741 114.291 222.788Z" fill="white"/>
</svg>
