<svg width="300" height="300" viewBox="0 0 300 300" fill="none" xmlns="http://www.w3.org/2000/svg">
<path d="M295.92 259.369L237.498 200.957C234.861 198.32 231.286 196.856 227.536 196.856H217.985C234.158 176.174 243.768 150.161 243.768 121.863C243.768 54.5455 189.213 0 121.884 0C54.5548 0 0 54.5455 0 121.863C0 189.181 54.5548 243.726 121.884 243.726C150.187 243.726 176.204 234.118 196.889 217.947V227.497C196.889 231.247 198.354 234.821 200.991 237.457L259.414 295.87C264.922 301.377 273.829 301.377 279.278 295.87L295.861 279.289C301.37 273.782 301.37 264.876 295.92 259.369ZM121.884 196.856C80.4551 196.856 46.8784 163.343 46.8784 121.863C46.8784 80.4414 80.3965 46.8704 121.884 46.8704C163.313 46.8704 196.889 80.3828 196.889 121.863C196.889 163.285 163.371 196.856 121.884 196.856Z" fill="white"/>
</svg>
