<svg width="255" height="300" viewBox="0 0 255 300" fill="none" xmlns="http://www.w3.org/2000/svg">
<path d="M127.5 150C167.742 150 200.357 116.426 200.357 75C200.357 33.5742 167.742 0 127.5 0C87.2578 0 54.6429 33.5742 54.6429 75C54.6429 116.426 87.2578 150 127.5 150ZM178.5 168.75H168.994C156.358 174.727 142.299 178.125 127.5 178.125C112.701 178.125 98.6987 174.727 86.0056 168.75H76.5C34.2656 168.75 0 204.023 0 247.5V271.875C0 287.402 12.2377 300 27.3214 300H227.679C242.762 300 255 287.402 255 271.875V247.5C255 204.023 220.734 168.75 178.5 168.75Z" fill="white"/>
</svg>
